<?xml version="1.0" encoding="UTF-8"?>
<svg id="Ebene_1" xmlns="http://www.w3.org/2000/svg" version="1.1" viewBox="0 0 230 32">
  <!-- Generator: Adobe Illustrator 29.3.1, SVG Export Plug-In . SVG Version: 2.1.0 Build 151)  -->
  <defs>
    <style>
      .st0 {
        fill: #fff;
      }

      .st0, .st1 {
        fill-rule: evenodd;
      }

      .st2, .st3 {
        fill: #e7711b;
      }

      .st3, .st4 {
        display: none;
      }

      .st1 {
        fill: #2aa8d7;
      }
    </style>
  </defs>
  <g>
    <path class="st2" d="M34,12.4c0,.4-.2.6-.6,1l-7.4,7,1.7,10.1v.4c0,.2,0,.6-.2.8s-.4.4-.6.4-.6,0-.8-.2l-9.1-4.8-9.3,4.6c-.4.2-.6.2-.8.2s-.6-.2-.6-.4v-1.1l1.7-10.1L.6,13.3c-.4-.4-.6-.8-.6-1,0-.6.4-1,1.2-1l10.3-1.5L16.1.8C16.1.2,16.5,0,17.1,0s.6.2,1,.8l4.7,9.1,10.1,1.5c.8,0,1.2.4,1.2,1Z"/>
    <g class="st4">
      <path class="st2" d="M16.1.8l-4.7,9.1-10.3,1.5c-.8,0-1.2.4-1.2,1s.2.6.6,1l7.6,6.9-1.7,10.1v1.1c0,.2.4.4.6.4s.4,0,.8-.2l9.2-4.5V0c-.5,0-.9.2-.9.8Z"/>
      <path class="st2" d="M17.1,1.1c0,0,0,.1.1.2l4.6,9.1.2.5h.5c0,0,10.1,1.6,10.1,1.6h0s0,0,0,0c0,0,0,0,0,0,0,0-.1.1-.2.2l-7.4,7-.4.4v.5c0,0,1.8,10,1.8,10v.3s0,0,0,.1h0s-9.1-4.8-9.1-4.8l-.4-.2-.5.2-9.2,4.5h0v-.3l1.7-10v-.5c0,0-.3-.4-.3-.4L1.3,12.6c0,0-.1-.1-.2-.2,0,0,0,0,0,0h.1s10.3-1.5,10.3-1.5h.5c0,0,.2-.5.2-.5L17,1.2h0M17.1,0C16.5,0,16.1.2,16.1.8l-4.7,9.1-10.3,1.5C.4,11.4,0,11.8,0,12.4s.2.6.6,1l7.6,6.9-1.7,10.1v1.1c0,.2.4.4.6.4s.4,0,.8-.2l9.3-4.6,9.1,4.8c.2.2.6.2.8.2s.4-.2.6-.4c.2-.2.2-.6.2-.8v-.4l-1.7-10.1,7.4-7c.4-.4.6-.6.6-1,0-.6-.4-1-1.2-1l-10.1-1.5L18.1.8C17.7.2,17.7,0,17.1,0h0Z"/>
    </g>
    <g class="st4">
      <path class="st2" d="M17.1,1.1c0,0,0,.1.1.2l4.6,9.1.2.5h.5c0,0,10.1,1.6,10.1,1.6h0s0,0,0,0c0,0,0,0,0,0,0,0-.1.1-.2.2l-7.4,7-.4.4v.5c0,0,1.8,10,1.8,10v.3s0,0,0,.1h0s-9.1-4.8-9.1-4.8l-.4-.2-.5.2-9.2,4.5h0v-.3l1.7-10v-.5c0,0-.3-.4-.3-.4L1.3,12.6c0,0-.1-.1-.2-.2,0,0,0,0,0,0h.1s10.3-1.5,10.3-1.5h.5c0,0,.2-.5.2-.5L17,1.2h0M17.1,0C16.5,0,16.1.2,16.1.8l-4.7,9.1-10.3,1.5C.4,11.4,0,11.8,0,12.4s.2.6.6,1l7.6,6.9-1.7,10.1v1.1c0,.2.4.4.6.4s.4,0,.8-.2l9.3-4.6,9.1,4.8c.2.2.6.2.8.2s.4-.2.6-.4c.2-.2.2-.6.2-.8v-.4l-1.7-10.1,7.4-7c.4-.4.6-.6.6-1,0-.6-.4-1-1.2-1l-10.1-1.5L18.1.8C17.7.2,17.7,0,17.1,0h0Z"/>
    </g>
  </g>
  <g>
    <path class="st2" d="M72,12.4c0,.4-.2.6-.6,1l-7.4,7,1.7,10.1v.4c0,.2,0,.6-.2.8s-.4.4-.6.4-.6,0-.8-.2l-9.1-4.8-9.3,4.6c-.4.2-.6.2-.8.2s-.6-.2-.6-.4v-1.1l1.7-10.1-7.6-6.9c-.4-.4-.6-.8-.6-1,0-.6.4-1,1.2-1l10.3-1.5L54.1.8C54.1.2,54.5,0,55.1,0s.6.2,1,.8l4.7,9.1,10.1,1.5c.8,0,1.2.4,1.2,1Z"/>
    <g class="st4">
      <path class="st2" d="M54.1.8l-4.7,9.1-10.3,1.5c-.8,0-1.2.4-1.2,1s.2.6.6,1l7.6,6.9-1.7,10.1v1.1c0,.2.4.4.6.4s.4,0,.8-.2l9.2-4.5V0c-.5,0-.9.2-.9.8Z"/>
      <path class="st2" d="M55.1,1.1c0,0,0,.1.1.2l4.6,9.1.2.5h.5c0,0,10.1,1.6,10.1,1.6h0s0,0,0,0c0,0,0,0,0,0,0,0-.1.1-.2.2l-7.4,7-.4.4v.5c0,0,1.8,10,1.8,10v.3s0,0,0,.1h0s-9.1-4.8-9.1-4.8l-.4-.2-.5.2-9.2,4.5h0v-.3l1.7-10v-.5c0,0-.3-.4-.3-.4l-7.5-6.8c0,0-.1-.1-.2-.2,0,0,0,0,0,0h.1s10.3-1.5,10.3-1.5h.5c0,0,.2-.5.2-.5l4.7-9.1h0M55.1,0c-.6,0-1,.2-1,.8l-4.7,9.1-10.3,1.5c-.8,0-1.2.4-1.2,1s.2.6.6,1l7.6,6.9-1.7,10.1v1.1c0,.2.4.4.6.4s.4,0,.8-.2l9.3-4.6,9.1,4.8c.2.2.6.2.8.2s.4-.2.6-.4c.2-.2.2-.6.2-.8v-.4l-1.7-10.1,7.4-7c.4-.4.6-.6.6-1,0-.6-.4-1-1.2-1l-10.1-1.5L56.1.8C55.7.2,55.7,0,55.1,0h0Z"/>
    </g>
    <g class="st4">
      <path class="st2" d="M55.1,1.1c0,0,0,.1.1.2l4.6,9.1.2.5h.5c0,0,10.1,1.6,10.1,1.6h0s0,0,0,0c0,0,0,0,0,0,0,0-.1.1-.2.2l-7.4,7-.4.4v.5c0,0,1.8,10,1.8,10v.3s0,0,0,.1h0s-9.1-4.8-9.1-4.8l-.4-.2-.5.2-9.2,4.5h0v-.3l1.7-10v-.5c0,0-.3-.4-.3-.4l-7.5-6.8c0,0-.1-.1-.2-.2,0,0,0,0,0,0h.1s10.3-1.5,10.3-1.5h.5c0,0,.2-.5.2-.5l4.7-9.1h0M55.1,0c-.6,0-1,.2-1,.8l-4.7,9.1-10.3,1.5c-.8,0-1.2.4-1.2,1s.2.6.6,1l7.6,6.9-1.7,10.1v1.1c0,.2.4.4.6.4s.4,0,.8-.2l9.3-4.6,9.1,4.8c.2.2.6.2.8.2s.4-.2.6-.4c.2-.2.2-.6.2-.8v-.4l-1.7-10.1,7.4-7c.4-.4.6-.6.6-1,0-.6-.4-1-1.2-1l-10.1-1.5L56.1.8C55.7.2,55.7,0,55.1,0h0Z"/>
    </g>
  </g>
  <g>
    <path class="st2" d="M110,12.4c0,.4-.2.6-.6,1l-7.4,7,1.7,10.1v.4c0,.2,0,.6-.2.8s-.4.4-.6.4-.6,0-.8-.2l-9.1-4.8-9.3,4.6c-.4.2-.6.2-.8.2s-.6-.2-.6-.4v-1.1l1.7-10.1-7.6-6.9c-.4-.4-.6-.8-.6-1,0-.6.4-1,1.2-1l10.3-1.5,4.7-9.1C92.1.2,92.5,0,93.1,0s.6.2,1,.8l4.7,9.1,10.1,1.5c.8,0,1.2.4,1.2,1Z"/>
    <g class="st4">
      <path class="st2" d="M92.1.8l-4.7,9.1-10.3,1.5c-.8,0-1.2.4-1.2,1s.2.6.6,1l7.6,6.9-1.7,10.1v1.1c0,.2.4.4.6.4s.4,0,.8-.2l9.2-4.5V0c-.5,0-.9.2-.9.8Z"/>
      <path class="st2" d="M93.1,1.1c0,0,0,.1.1.2l4.6,9.1.2.5h.5c0,0,10.1,1.6,10.1,1.6h0s0,0,0,0c0,0,0,0,0,0,0,0-.1.1-.2.2l-7.4,7-.4.4v.5c0,0,1.8,10,1.8,10v.3s0,0,0,.1h0s-9.1-4.8-9.1-4.8l-.4-.2-.5.2-9.2,4.5h0v-.3l1.7-10v-.5c0,0-.3-.4-.3-.4l-7.5-6.8c0,0-.1-.1-.2-.2,0,0,0,0,0,0h.1s10.3-1.5,10.3-1.5h.5c0,0,.2-.5.2-.5l4.7-9.1h0M93.1,0c-.6,0-1,.2-1,.8l-4.7,9.1-10.3,1.5c-.8,0-1.2.4-1.2,1s.2.6.6,1l7.6,6.9-1.7,10.1v1.1c0,.2.4.4.6.4s.4,0,.8-.2l9.3-4.6,9.1,4.8c.2.2.6.2.8.2s.4-.2.6-.4c.2-.2.2-.6.2-.8v-.4l-1.7-10.1,7.4-7c.4-.4.6-.6.6-1,0-.6-.4-1-1.2-1l-10.1-1.5-4.7-9.1C93.7.2,93.7,0,93.1,0h0Z"/>
    </g>
    <g class="st4">
      <path class="st2" d="M93.1,1.1c0,0,0,.1.1.2l4.6,9.1.2.5h.5c0,0,10.1,1.6,10.1,1.6h0s0,0,0,0c0,0,0,0,0,0,0,0-.1.1-.2.2l-7.4,7-.4.4v.5c0,0,1.8,10,1.8,10v.3s0,0,0,.1h0s-9.1-4.8-9.1-4.8l-.4-.2-.5.2-9.2,4.5h0v-.3l1.7-10v-.5c0,0-.3-.4-.3-.4l-7.5-6.8c0,0-.1-.1-.2-.2,0,0,0,0,0,0h.1s10.3-1.5,10.3-1.5h.5c0,0,.2-.5.2-.5l4.7-9.1h0M93.1,0c-.6,0-1,.2-1,.8l-4.7,9.1-10.3,1.5c-.8,0-1.2.4-1.2,1s.2.6.6,1l7.6,6.9-1.7,10.1v1.1c0,.2.4.4.6.4s.4,0,.8-.2l9.3-4.6,9.1,4.8c.2.2.6.2.8.2s.4-.2.6-.4c.2-.2.2-.6.2-.8v-.4l-1.7-10.1,7.4-7c.4-.4.6-.6.6-1,0-.6-.4-1-1.2-1l-10.1-1.5-4.7-9.1C93.7.2,93.7,0,93.1,0h0Z"/>
    </g>
  </g>
  <g>
    <path class="st3" d="M148,12.4c0,.4-.2.6-.6,1l-7.4,7,1.7,10.1v.4c0,.2,0,.6-.2.8s-.4.4-.6.4-.6,0-.8-.2l-9.1-4.8-9.3,4.6c-.4.2-.6.2-.8.2s-.6-.2-.6-.4v-1.1l1.7-10.1-7.6-6.9c-.4-.4-.6-.8-.6-1,0-.6.4-1,1.2-1l10.3-1.5,4.7-9.1C130.1.2,130.5,0,131.1,0s.6.2,1,.8l4.7,9.1,10.1,1.5c.8,0,1.2.4,1.2,1Z"/>
    <g>
      <path class="st2" d="M130.1.8l-4.7,9.1-10.3,1.5c-.8,0-1.2.4-1.2,1s.2.6.6,1l7.6,6.9-1.7,10.1v1.1c0,.2.4.4.6.4s.4,0,.8-.2l9.2-4.5V0c-.5,0-.9.2-.9.8Z"/>
      <path class="st2" d="M131.1,1.1c0,0,0,.1.1.2l4.6,9.1.2.5h.5c0,0,10.1,1.6,10.1,1.6h0s0,0,0,0c0,0,0,0,0,0,0,0-.1.1-.2.2l-7.4,7-.4.4v.5c0,0,1.8,10,1.8,10v.3s0,0,0,.1h0s-9.1-4.8-9.1-4.8l-.4-.2-.5.2-9.2,4.5h0v-.3l1.7-10v-.5c0,0-.3-.4-.3-.4l-7.5-6.8c0,0-.1-.1-.2-.2,0,0,0,0,0,0h.1s10.3-1.5,10.3-1.5h.5c0,0,.2-.5.2-.5l4.7-9.1h0M131.1,0c-.6,0-1,.2-1,.8l-4.7,9.1-10.3,1.5c-.8,0-1.2.4-1.2,1s.2.6.6,1l7.6,6.9-1.7,10.1v1.1c0,.2.4.4.6.4s.4,0,.8-.2l9.3-4.6,9.1,4.8c.2.2.6.2.8.2s.4-.2.6-.4c.2-.2.2-.6.2-.8v-.4l-1.7-10.1,7.4-7c.4-.4.6-.6.6-1,0-.6-.4-1-1.2-1l-10.1-1.5-4.7-9.1C131.7.2,131.7,0,131.1,0h0Z"/>
    </g>
    <path class="st2" d="M131.1,1.1c0,0,0,.1.1.2l4.6,9.1.2.5h.5c0,0,10.1,1.6,10.1,1.6h0s0,0,0,0c0,0,0,0,0,0,0,0-.1.1-.2.2l-7.4,7-.4.4v.5c0,0,1.8,10,1.8,10v.3s0,0,0,.1h0s-9.1-4.8-9.1-4.8l-.4-.2-.5.2-9.2,4.5h0v-.3l1.7-10v-.5c0,0-.3-.4-.3-.4l-7.5-6.8c0,0-.1-.1-.2-.2,0,0,0,0,0,0h.1s10.3-1.5,10.3-1.5h.5c0,0,.2-.5.2-.5l4.7-9.1h0M131.1,0c-.6,0-1,.2-1,.8l-4.7,9.1-10.3,1.5c-.8,0-1.2.4-1.2,1s.2.6.6,1l7.6,6.9-1.7,10.1v1.1c0,.2.4.4.6.4s.4,0,.8-.2l9.3-4.6,9.1,4.8c.2.2.6.2.8.2s.4-.2.6-.4c.2-.2.2-.6.2-.8v-.4l-1.7-10.1,7.4-7c.4-.4.6-.6.6-1,0-.6-.4-1-1.2-1l-10.1-1.5-4.7-9.1C131.7.2,131.7,0,131.1,0h0Z"/>
  </g>
  <g>
    <path class="st3" d="M186,12.4c0,.4-.2.6-.6,1l-7.4,7,1.7,10.1v.4c0,.2,0,.6-.2.8s-.4.4-.6.4-.6,0-.8-.2l-9.1-4.8-9.3,4.6c-.4.2-.6.2-.8.2s-.6-.2-.6-.4v-1.1l1.7-10.1-7.6-6.9c-.4-.4-.6-.8-.6-1,0-.6.4-1,1.2-1l10.3-1.5,4.7-9.1C168.1.2,168.5,0,169.1,0s.6.2,1,.8l4.7,9.1,10.1,1.5c.8,0,1.2.4,1.2,1Z"/>
    <g class="st4">
      <path class="st2" d="M168.1.8l-4.7,9.1-10.3,1.5c-.8,0-1.2.4-1.2,1s.2.6.6,1l7.6,6.9-1.7,10.1v1.1c0,.2.4.4.6.4s.4,0,.8-.2l9.2-4.5V0c-.5,0-.9.2-.9.8Z"/>
      <path class="st2" d="M169.1,1.1c0,0,0,.1.1.2l4.6,9.1.2.5h.5c0,0,10.1,1.6,10.1,1.6h0s0,0,0,0c0,0,0,0,0,0,0,0-.1.1-.2.2l-7.4,7-.4.4v.5c0,0,1.8,10,1.8,10v.3s0,0,0,.1h0s-9.1-4.8-9.1-4.8l-.4-.2-.5.2-9.2,4.5h0v-.3l1.7-10v-.5c0,0-.3-.4-.3-.4l-7.5-6.8c0,0-.1-.1-.2-.2,0,0,0,0,0,0h.1s10.3-1.5,10.3-1.5h.5c0,0,.2-.5.2-.5l4.7-9.1h0M169.1,0c-.6,0-1,.2-1,.8l-4.7,9.1-10.3,1.5c-.8,0-1.2.4-1.2,1s.2.6.6,1l7.6,6.9-1.7,10.1v1.1c0,.2.4.4.6.4s.4,0,.8-.2l9.3-4.6,9.1,4.8c.2.2.6.2.8.2s.4-.2.6-.4c.2-.2.2-.6.2-.8v-.4l-1.7-10.1,7.4-7c.4-.4.6-.6.6-1,0-.6-.4-1-1.2-1l-10.1-1.5-4.7-9.1C169.7.2,169.7,0,169.1,0h0Z"/>
    </g>
    <path class="st2" d="M169.1,1.1c0,0,0,.1.1.2l4.6,9.1.2.5h.5c0,0,10.1,1.6,10.1,1.6h0s0,0,0,0c0,0,0,0,0,0,0,0-.1.1-.2.2l-7.4,7-.4.4v.5c0,0,1.8,10,1.8,10v.3s0,0,0,.1h0s-9.1-4.8-9.1-4.8l-.4-.2-.5.2-9.2,4.5h0v-.3l1.7-10v-.5c0,0-.3-.4-.3-.4l-7.5-6.8c0,0-.1-.1-.2-.2,0,0,0,0,0,0h.1s10.3-1.5,10.3-1.5h.5c0,0,.2-.5.2-.5l4.7-9.1h0M169.1,0c-.6,0-1,.2-1,.8l-4.7,9.1-10.3,1.5c-.8,0-1.2.4-1.2,1s.2.6.6,1l7.6,6.9-1.7,10.1v1.1c0,.2.4.4.6.4s.4,0,.8-.2l9.3-4.6,9.1,4.8c.2.2.6.2.8.2s.4-.2.6-.4c.2-.2.2-.6.2-.8v-.4l-1.7-10.1,7.4-7c.4-.4.6-.6.6-1,0-.6-.4-1-1.2-1l-10.1-1.5-4.7-9.1C169.7.2,169.7,0,169.1,0h0Z"/>
  </g>
  <g>
    <path class="st1" d="M214,0c1.9,0,4.9,4.1,4.9,4.1,0,0,5.1-.9,6.4.6,1.3,1.3.6,6.4.6,6.4,0,0,4.1,3,4.1,4.9s-4.1,4.9-4.1,4.9c0,0,.9,5.1-.6,6.4-1.3,1.3-6.4.6-6.4.6,0,0-3,4.1-4.9,4.1s-4.9-4.1-4.9-4.1c0,0-5.1.9-6.4-.6-1.3-1.3-.6-6.4-.6-6.4,0,0-4.1-3-4.1-4.9s4.1-4.9,4.1-4.9c0,0-.9-5.1.6-6.4,1.3-1.3,6.4-.6,6.4-.6C209.1,4.1,212.1,0,214,0Z"/>
    <path class="st0" d="M213.8,16.2l4.9-4.9c.4-.4.9-.4,1.3,0l1.3,1.3c.4.4.4.9,0,1.3l-6.6,6.6h0l-1.3,1.3c-.4.4-.9.4-1.3,0h0l-1.3-1.3h0l-3.4-3.4c-.4-.4-.4-.9,0-1.3h0l1.3-1.3c.4-.4.9-.4,1.3,0l2.4,2.4h0"/>
  </g>
</svg>